# xmcd
#
# Track frame offsets: 
#        150
#        19792
#        38447
#        61022
#        77875
#        99032
#        118442
#        138617
#        159392
#        181455
#        202602
#        222840
#        242052
#        262752
#        283932
#        300260
#
# Disc length: 4200 seconds
#
# Revision: 4
# Processed by: cddbd v1.5.2PL0 Copyright (c) Steve Scherf et al.
# Submitted via: ExactAudioCopy v0.95a5
#
DISCID=cc106610
DTITLE=刘德华 - 华纳超极品音色系列精选16首
DYEAR=1997
DGENRE=Pop
TTITLE0=花花世界
TTITLE1=独自去偷欢
TTITLE2=假装
TTITLE3=永远寂寞
TTITLE4=口琴别恋
TTITLE5=答案就是你
TTITLE6=真我的风采
TTITLE7=谢谢您的爱
TTITLE8=离开你以后
TTITLE9=藕断丝连
TTITLE10=谁人知
TTITLE11=天天想你
TTITLE12=情人Happy Birthday
TTITLE13=今夜梦还暖
TTITLE14=该走的时候
TTITLE15=昨夜渡轮上
EXTD=
EXTT0=
EXTT1=
EXTT2=
EXTT3=
EXTT4=
EXTT5=
EXTT6=
EXTT7=
EXTT8=
EXTT9=
EXTT10=
EXTT11=
EXTT12=
EXTT13=
EXTT14=
EXTT15=
PLAYORDER=
